<svg width="32" height="32" viewBox="0 0 32 32" fill="none" xmlns="http://www.w3.org/2000/svg">
<path d="M24.3692 11.4109H22.4C21.8585 11.4109 21.4154 11.0016 21.4154 10.5013V1.40568C21.4154 0.905426 21.8585 0.496124 22.4 0.496124H24.3692C24.9108 0.496124 25.3538 0.905426 25.3538 1.40568V10.5013C25.3538 11.0016 24.9108 11.4109 24.3692 11.4109Z" fill="#00ED64"/>
<path d="M16.9846 27.2868H15.0154C14.4738 27.2868 14.0308 26.8775 14.0308 26.3773V17.2817C14.0308 16.7814 14.4738 16.3721 15.0154 16.3721H16.9846C17.5262 16.3721 17.9692 16.7814 17.9692 17.2817V26.3773C17.9692 26.8775 17.5262 27.2868 16.9846 27.2868Z" fill="#00ED64"/>
<path fill-rule="evenodd" clip-rule="evenodd" d="M31.5077 1.73643V0H32V11.907H31.5077V10.1705H25.6V10.5013C25.6 11.1584 25.0261 11.6589 24.3692 11.6589H22.4C21.7431 11.6589 21.1692 11.1584 21.1692 10.5013V10.1705H12.0923C10.0658 10.1705 8.40613 11.8452 8.40613 13.8915C8.40613 15.9378 10.0658 17.6124 12.0923 17.6124H13.7846V17.2817C13.7846 16.6245 14.3585 16.124 15.0154 16.124H16.9846C17.6415 16.124 18.2154 16.6245 18.2154 17.2817V17.7258C24.0315 18.5381 28.0677 23.6145 28.0677 29.7674V31.5039H29.7877V32H17.9907V31.5039H19.7107V29.7674C19.7107 28.7227 19.4048 27.7895 18.8578 27.1224C18.6695 26.8927 18.4514 26.6929 18.2049 26.53C18.1241 27.1104 17.5896 27.5349 16.9846 27.5349H15.0154C14.3585 27.5349 13.7846 27.0344 13.7846 26.3773V26.0465H12.0431C5.36932 26.0465 0 20.6266 0 13.8915C0 7.15639 5.36932 1.73643 12.0431 1.73643H21.1692V1.40568C21.1692 0.748549 21.7431 0.248062 22.4 0.248062H24.3692C25.0261 0.248062 25.6 0.748549 25.6 1.40568V1.73643H31.5077ZM25.6 2.23256V9.67442H31.5077V2.23256H25.6ZM21.1692 2.23256H12.0431C5.64194 2.23256 0.492308 7.42966 0.492308 13.8915C0.492308 20.3533 5.64194 25.5504 12.0431 25.5504H13.7846V18.1085H12.0923C9.79321 18.1085 7.91382 16.2111 7.91382 13.8915C7.91382 11.5719 9.79321 9.67442 12.0923 9.67442H21.1692V2.23256ZM18.2154 25.9602C18.6105 26.1723 18.9531 26.4597 19.2373 26.8063C19.87 27.5779 20.203 28.6292 20.203 29.7674V31.5039H27.5754V29.7674C27.5754 23.8626 23.7328 19.0346 18.2154 18.2273V25.9602ZM14.2769 17.2817C14.2769 16.9383 14.5892 16.6202 15.0154 16.6202H16.9846C17.4108 16.6202 17.7231 16.9383 17.7231 17.2817V26.3773C17.7231 26.7206 17.4108 27.0388 16.9846 27.0388H15.0154C14.5892 27.0388 14.2769 26.7206 14.2769 26.3773V17.2817ZM21.6615 1.40568C21.6615 1.0623 21.9738 0.744186 22.4 0.744186H24.3692C24.7954 0.744186 25.1077 1.0623 25.1077 1.40568V10.5013C25.1077 10.8447 24.7954 11.1628 24.3692 11.1628H22.4C21.9738 11.1628 21.6615 10.8447 21.6615 10.5013V1.40568Z" fill="#001E2B"/>
</svg>
